<?xml version="1.0" encoding="UTF-8" standalone="no"?>
<!DOCTYPE svg PUBLIC "-//W3C//DTD SVG 1.1//EN"
 "http://www.w3.org/Graphics/SVG/1.1/DTD/svg11.dtd">
<!-- Generated by graphviz version 8.1.0 (20230707.0739)
 -->
<!-- Pages: 1 -->
<svg width="1136pt" height="447pt"
 viewBox="0.00 0.00 1136.16 447.00" xmlns="http://www.w3.org/2000/svg" xmlns:xlink="http://www.w3.org/1999/xlink">
<g id="graph0" class="graph" transform="scale(1 1) rotate(0) translate(4 443)">
<polygon fill="white" stroke="none" points="-4,4 -4,-443 1132.16,-443 1132.16,4 -4,4"/>
<!-- dtu/deps/normal/Primes$PrimesIterator -->
<g id="node1" class="node">
<title>dtu/deps/normal/Primes$PrimesIterator</title>
<polygon fill="none" stroke="black" points="309.73,-412.5 309.73,-439 534.98,-439 534.98,-412.5 309.73,-412.5"/>
<text text-anchor="start" x="314.73" y="-420.7" font-family="Times,serif" font-size="14.00">dtu/deps/normal/Primes$PrimesIterator</text>
<polygon fill="none" stroke="black" points="309.73,-361.5 309.73,-412.5 534.98,-412.5 534.98,-361.5 309.73,-361.5"/>
<text text-anchor="start" x="316.73" y="-392.2" font-family="Times,serif" font-size="14.00">&#45; current: int</text>
<text text-anchor="start" x="316.73" y="-371.7" font-family="Times,serif" font-size="14.00">~ this$0: Primes</text>
<polygon fill="none" stroke="black" points="309.73,-269.5 309.73,-361.5 534.98,-361.5 534.98,-269.5 309.73,-269.5"/>
<text text-anchor="start" x="316.73" y="-341.2" font-family="Times,serif" font-size="14.00">+ next(String): Integer</text>
<text text-anchor="start" x="316.73" y="-320.7" font-family="Times,serif" font-size="14.00">+ next(String): Object</text>
<text text-anchor="start" x="316.73" y="-300.2" font-family="Times,serif" font-size="14.00">+ &lt;init&gt;(String): void</text>
<text text-anchor="start" x="316.73" y="-279.7" font-family="Times,serif" font-size="14.00">+ hasNext(String): boolean</text>
</g>
<!-- dtu/deps/normal/Primes$PrimesIterator&#45;&gt;dtu/deps/normal/Primes$PrimesIterator -->
<g id="edge6" class="edge">
<title>dtu/deps/normal/Primes$PrimesIterator&#45;&gt;dtu/deps/normal/Primes$PrimesIterator</title>
<path fill="none" stroke="black" stroke-dasharray="5,2" d="M534.77,-371.22C545.9,-367.82 552.98,-362.16 552.98,-354.25 552.98,-348.81 549.64,-344.44 543.93,-341.13"/>
<polygon fill="black" stroke="black" points="534.77,-337.28 545.73,-337.01 539.38,-339.22 543.99,-341.15 543.99,-341.15 543.99,-341.15 539.38,-339.22 542.25,-345.3 534.77,-337.28 534.77,-337.28"/>
<text text-anchor="middle" x="564.61" y="-349.2" font-family="Times,serif" font-size="14.00">uses</text>
</g>
<!-- dtu/deps/normal/Primes -->
<g id="node2" class="node">
<title>dtu/deps/normal/Primes</title>
<polygon fill="none" stroke="black" points="391.23,-190.5 391.23,-217 545.48,-217 545.48,-190.5 391.23,-190.5"/>
<text text-anchor="start" x="403.11" y="-198.7" font-family="Times,serif" font-size="14.00">dtu/deps/normal/Primes</text>
<polygon fill="none" stroke="black" points="391.23,-160 391.23,-190.5 545.48,-190.5 545.48,-160 391.23,-160"/>
<text text-anchor="start" x="398.23" y="-170.2" font-family="Times,serif" font-size="14.00">&#45; primes: List</text>
<polygon fill="none" stroke="black" points="391.23,-88.5 391.23,-160 545.48,-160 545.48,-88.5 391.23,-88.5"/>
<text text-anchor="start" x="398.23" y="-139.7" font-family="Times,serif" font-size="14.00">+ &lt;init&gt;(String): void</text>
<text text-anchor="start" x="398.23" y="-119.2" font-family="Times,serif" font-size="14.00">+ iterator(String): Iterator</text>
<text text-anchor="start" x="398.23" y="-98.7" font-family="Times,serif" font-size="14.00">+ main(String): void</text>
</g>
<!-- dtu/deps/normal/Primes$PrimesIterator&#45;&gt;dtu/deps/normal/Primes -->
<g id="edge8" class="edge">
<title>dtu/deps/normal/Primes$PrimesIterator&#45;&gt;dtu/deps/normal/Primes</title>
<path fill="none" stroke="black" d="M442.14,-269.7C443.57,-263.54 444.99,-257.42 446.36,-251.5 448.01,-244.33 449.72,-236.87 451.41,-229.4"/>
<polygon fill="black" stroke="black" points="451.4,-229.45 448.83,-222.72 454.05,-217.75 456.63,-224.49 451.4,-229.45"/>
<text text-anchor="middle" x="484.11" y="-238.2" font-family="Times,serif" font-size="14.00">composition</text>
</g>
<!-- java/util/List -->
<g id="node3" class="node">
<title>java/util/List</title>
<ellipse fill="none" stroke="black" cx="222.36" cy="-18" rx="58" ry="18"/>
<text text-anchor="middle" x="222.36" y="-12.95" font-family="Times,serif" font-size="14.00">java/util/List</text>
</g>
<!-- dtu/deps/normal/Primes$PrimesIterator&#45;&gt;java/util/List -->
<g id="edge1" class="edge">
<title>dtu/deps/normal/Primes$PrimesIterator&#45;&gt;java/util/List</title>
<path fill="none" stroke="black" stroke-dasharray="5,2" d="M361.13,-269.71C322.93,-214.97 274.67,-140.8 240.36,-70.5 236.52,-62.63 233.11,-53.73 230.31,-45.57"/>
<polygon fill="black" stroke="black" points="227.22,-36.11 234.6,-44.22 228.77,-40.86 230.32,-45.61 230.32,-45.61 230.32,-45.61 228.77,-40.86 226.05,-47.01 227.22,-36.11 227.22,-36.11"/>
<text text-anchor="middle" x="336.98" y="-147.7" font-family="Times,serif" font-size="14.00">uses</text>
</g>
<!-- java/lang/Integer -->
<g id="node5" class="node">
<title>java/lang/Integer</title>
<ellipse fill="none" stroke="black" cx="73.36" cy="-18" rx="73.36" ry="18"/>
<text text-anchor="middle" x="73.36" y="-12.95" font-family="Times,serif" font-size="14.00">java/lang/Integer</text>
</g>
<!-- dtu/deps/normal/Primes$PrimesIterator&#45;&gt;java/lang/Integer -->
<g id="edge4" class="edge">
<title>dtu/deps/normal/Primes$PrimesIterator&#45;&gt;java/lang/Integer</title>
<path fill="none" stroke="black" stroke-dasharray="5,2" d="M309.95,-284.56C280.91,-264.47 250.66,-241.32 225.11,-217 167.51,-162.18 114.47,-84.14 89.08,-44.39"/>
<polygon fill="black" stroke="black" points="83.8,-36.05 92.95,-42.1 86.48,-40.28 89.15,-44.5 89.15,-44.5 89.15,-44.5 86.48,-40.28 85.35,-46.91 83.8,-36.05 83.8,-36.05"/>
<text text-anchor="middle" x="236.98" y="-147.7" font-family="Times,serif" font-size="14.00">uses</text>
</g>
<!-- java/util/Iterator -->
<g id="node6" class="node">
<title>java/util/Iterator</title>
<ellipse fill="none" stroke="black" cx="1057.36" cy="-18" rx="70.8" ry="18"/>
<text text-anchor="middle" x="1057.36" y="-12.95" font-family="Times,serif" font-size="14.00">java/util/Iterator</text>
</g>
<!-- dtu/deps/normal/Primes$PrimesIterator&#45;&gt;java/util/Iterator -->
<g id="edge14" class="edge">
<title>dtu/deps/normal/Primes$PrimesIterator&#45;&gt;java/util/Iterator</title>
<path fill="none" stroke="black" stroke-dasharray="5,2" d="M534.79,-294.07C679.46,-217.92 923.42,-89.5 1018.12,-39.65"/>
<polygon fill="none" stroke="black" points="1019.39,-42.42 1026.61,-34.66 1016.13,-36.22 1019.39,-42.42"/>
<text text-anchor="middle" x="947.86" y="-147.7" font-family="Times,serif" font-size="14.00">realization</text>
</g>
<!-- dtu/deps/normal/Primes&#45;&gt;dtu/deps/normal/Primes$PrimesIterator -->
<g id="edge11" class="edge">
<title>dtu/deps/normal/Primes&#45;&gt;dtu/deps/normal/Primes$PrimesIterator</title>
<path fill="none" stroke="black" stroke-dasharray="5,2" d="M425.92,-216.56C423.19,-222.61 420.84,-228.8 419.11,-235 416.88,-242.96 415.44,-251.34 414.58,-259.81"/>
<polygon fill="black" stroke="black" points="413.84,-269.78 410.1,-259.47 414.21,-264.8 414.59,-259.81 414.59,-259.81 414.59,-259.81 414.21,-264.8 419.07,-260.14 413.84,-269.78 413.84,-269.78"/>
<text text-anchor="middle" x="430.98" y="-238.2" font-family="Times,serif" font-size="14.00">uses</text>
</g>
<!-- dtu/deps/normal/Primes&#45;&gt;dtu/deps/normal/Primes -->
<g id="edge12" class="edge">
<title>dtu/deps/normal/Primes&#45;&gt;dtu/deps/normal/Primes</title>
<path fill="none" stroke="black" stroke-dasharray="5,2" d="M545.25,-167.98C556.16,-165.51 563.48,-160.44 563.48,-152.75 563.48,-147.46 560.02,-143.41 554.31,-140.6"/>
<polygon fill="black" stroke="black" points="545.25,-137.52 556.16,-136.47 549.98,-139.13 554.72,-140.73 554.72,-140.73 554.72,-140.73 549.98,-139.13 553.27,-145 545.25,-137.52 545.25,-137.52"/>
<text text-anchor="middle" x="575.11" y="-147.7" font-family="Times,serif" font-size="14.00">uses</text>
</g>
<!-- dtu/deps/normal/Primes&#45;&gt;java/util/List -->
<g id="edge2" class="edge">
<title>dtu/deps/normal/Primes&#45;&gt;java/util/List</title>
<path fill="none" stroke="black" stroke-dasharray="5,2" d="M391.63,-104.4C363.6,-87.76 331.41,-69.39 301.36,-54 289.76,-48.06 276.94,-42.12 265.06,-36.87"/>
<polygon fill="black" stroke="black" points="256.19,-33 267.16,-32.87 260.78,-35 265.36,-37 265.36,-37 265.36,-37 260.78,-35 263.56,-41.12 256.19,-33 256.19,-33"/>
<text text-anchor="middle" x="340.98" y="-57.2" font-family="Times,serif" font-size="14.00">uses</text>
</g>
<!-- java/util/ArrayList -->
<g id="node4" class="node">
<title>java/util/ArrayList</title>
<ellipse fill="none" stroke="black" cx="378.36" cy="-18" rx="79.5" ry="18"/>
<text text-anchor="middle" x="378.36" y="-12.95" font-family="Times,serif" font-size="14.00">java/util/ArrayList</text>
</g>
<!-- dtu/deps/normal/Primes&#45;&gt;java/util/ArrayList -->
<g id="edge3" class="edge">
<title>dtu/deps/normal/Primes&#45;&gt;java/util/ArrayList</title>
<path fill="none" stroke="black" stroke-dasharray="5,2" d="M425.73,-88.87C415.03,-73.08 404.14,-57.03 395.51,-44.3"/>
<polygon fill="black" stroke="black" points="389.92,-36.06 399.26,-41.81 392.73,-40.2 395.53,-44.33 395.53,-44.33 395.53,-44.33 392.73,-40.2 391.81,-46.86 389.92,-36.06 389.92,-36.06"/>
<text text-anchor="middle" x="424.98" y="-57.2" font-family="Times,serif" font-size="14.00">uses</text>
</g>
<!-- dtu/deps/normal/Primes&#45;&gt;java/lang/Integer -->
<g id="edge10" class="edge">
<title>dtu/deps/normal/Primes&#45;&gt;java/lang/Integer</title>
<path fill="none" stroke="black" stroke-dasharray="5,2" d="M391.26,-125.84C312.46,-99.36 192.3,-58.97 124.52,-36.19"/>
<polygon fill="black" stroke="black" points="115.31,-33.1 126.23,-32.02 120.05,-34.69 124.79,-36.29 124.79,-36.29 124.79,-36.29 120.05,-34.69 123.36,-40.55 115.31,-33.1 115.31,-33.1"/>
<text text-anchor="middle" x="235.98" y="-57.2" font-family="Times,serif" font-size="14.00">uses</text>
</g>
<!-- dtu/deps/normal/Primes&#45;&gt;java/util/Iterator -->
<g id="edge5" class="edge">
<title>dtu/deps/normal/Primes&#45;&gt;java/util/Iterator</title>
<path fill="none" stroke="black" stroke-dasharray="5,2" d="M545.39,-135.35C620.69,-119.22 738.52,-93.7 840.36,-70.5 893.71,-58.34 954.28,-43.92 997.85,-33.43"/>
<polygon fill="black" stroke="black" points="1007.43,-31.12 998.76,-37.84 1002.57,-32.29 997.71,-33.46 997.71,-33.46 997.71,-33.46 1002.57,-32.29 996.65,-29.09 1007.43,-31.12 1007.43,-31.12"/>
<text text-anchor="middle" x="916.98" y="-57.2" font-family="Times,serif" font-size="14.00">uses</text>
</g>
<!-- java/io/PrintStream -->
<g id="node7" class="node">
<title>java/io/PrintStream</title>
<ellipse fill="none" stroke="black" cx="559.36" cy="-18" rx="83.08" ry="18"/>
<text text-anchor="middle" x="559.36" y="-12.95" font-family="Times,serif" font-size="14.00">java/io/PrintStream</text>
</g>
<!-- dtu/deps/normal/Primes&#45;&gt;java/io/PrintStream -->
<g id="edge7" class="edge">
<title>dtu/deps/normal/Primes&#45;&gt;java/io/PrintStream</title>
<path fill="none" stroke="black" stroke-dasharray="5,2" d="M511.46,-88.87C522.29,-73.08 533.29,-57.03 542.02,-44.3"/>
<polygon fill="black" stroke="black" points="547.67,-36.06 545.72,-46.85 544.84,-40.18 542.01,-44.3 542.01,-44.3 542.01,-44.3 544.84,-40.18 538.3,-41.76 547.67,-36.06 547.67,-36.06"/>
<text text-anchor="middle" x="546.98" y="-57.2" font-family="Times,serif" font-size="14.00">uses</text>
</g>
<!-- java/lang/String -->
<g id="node8" class="node">
<title>java/lang/String</title>
<ellipse fill="none" stroke="black" cx="730.36" cy="-18" rx="69.78" ry="18"/>
<text text-anchor="middle" x="730.36" y="-12.95" font-family="Times,serif" font-size="14.00">java/lang/String</text>
</g>
<!-- dtu/deps/normal/Primes&#45;&gt;java/lang/String -->
<g id="edge9" class="edge">
<title>dtu/deps/normal/Primes&#45;&gt;java/lang/String</title>
<path fill="none" stroke="black" stroke-dasharray="5,2" d="M545.2,-112.82C593,-88.59 652.49,-58.45 690.93,-38.98"/>
<polygon fill="black" stroke="black" points="699.75,-34.51 692.87,-43.04 695.29,-36.77 690.83,-39.03 690.83,-39.03 690.83,-39.03 695.29,-36.77 688.8,-35.01 699.75,-34.51 699.75,-34.51"/>
<text text-anchor="middle" x="670.98" y="-57.2" font-family="Times,serif" font-size="14.00">uses</text>
</g>
<!-- java/lang/Iterable -->
<g id="node9" class="node">
<title>java/lang/Iterable</title>
<ellipse fill="none" stroke="black" cx="893.36" cy="-18" rx="75.41" ry="18"/>
<text text-anchor="middle" x="893.36" y="-12.95" font-family="Times,serif" font-size="14.00">java/lang/Iterable</text>
</g>
<!-- dtu/deps/normal/Primes&#45;&gt;java/lang/Iterable -->
<g id="edge13" class="edge">
<title>dtu/deps/normal/Primes&#45;&gt;java/lang/Iterable</title>
<path fill="none" stroke="black" stroke-dasharray="5,2" d="M545.32,-127.71C630.08,-101.24 764.21,-59.34 838.79,-36.05"/>
<polygon fill="none" stroke="black" points="839.4,-39.21 847.9,-32.89 837.31,-32.53 839.4,-39.21"/>
<text text-anchor="middle" x="807.86" y="-57.2" font-family="Times,serif" font-size="14.00">realization</text>
</g>
</g>
</svg>
